<?xml version="1.0" encoding="utf-8"?>
<!-- Generator: Adobe Illustrator 27.1.1, SVG Export Plug-In . SVG Version: 6.00 Build 0)  -->
<svg version="1.1" id="Calque_1" xmlns="http://www.w3.org/2000/svg" xmlns:xlink="http://www.w3.org/1999/xlink" x="0px" y="0px"
	 viewBox="0 0 677.7 741.8" style="enable-background:new 0 0 677.7 741.8;" xml:space="preserve">
<style type="text/css">
	.st0{fill:#FFFFFF;}
</style>
<g>
	<g>
		<path class="st0" d="M307.8,568.3c0,1.5-0.3,2.8-0.8,4c-0.6,1.1-1.3,2.1-2.3,2.8s-2.1,1.3-3.4,1.7s-2.7,0.6-4.1,0.6
			c-1,0-1.9-0.1-2.8-0.2s-1.6-0.4-2.2-0.6c-0.6-0.2-1.2-0.5-1.6-0.7s-0.8-0.5-0.9-0.7s-0.3-0.5-0.4-0.8c-0.1-0.4-0.1-0.9-0.1-1.6
			c0-0.5,0-0.8,0-1.2s0.1-0.6,0.1-0.8c0.1-0.2,0.1-0.3,0.3-0.4c0.1-0.1,0.2-0.1,0.4-0.1c0.2,0,0.5,0.1,0.9,0.4
			c0.4,0.2,0.9,0.5,1.5,0.8c0.6,0.3,1.3,0.6,2.1,0.8s1.8,0.4,2.8,0.4c0.7,0,1.3-0.1,1.9-0.2s1-0.4,1.4-0.7c0.4-0.3,0.7-0.7,0.9-1.2
			s0.3-1,0.3-1.5c0-0.7-0.2-1.2-0.5-1.7c-0.4-0.5-0.8-0.9-1.4-1.2c-0.6-0.4-1.2-0.7-1.9-1c-0.7-0.3-1.5-0.7-2.2-1
			c-0.8-0.3-1.5-0.8-2.2-1.2c-0.7-0.5-1.4-1-1.9-1.6s-1-1.4-1.4-2.2c-0.4-0.9-0.5-1.9-0.5-3.1c0-1.4,0.2-2.6,0.8-3.6
			s1.2-1.9,2.1-2.6s1.9-1.2,3-1.5c1.2-0.3,2.4-0.5,3.7-0.5c0.7,0,1.4,0,2,0.2c0.7,0.1,1.3,0.2,1.9,0.4s1.1,0.4,1.6,0.6
			c0.5,0.2,0.8,0.4,0.9,0.5c0.1,0.2,0.2,0.3,0.3,0.4c0,0.1,0.1,0.2,0.1,0.4c0,0.2,0.1,0.4,0.1,0.6s0,0.6,0,1c0,0.4,0,0.8,0,1.1
			c0,0.3-0.1,0.5-0.1,0.7s-0.1,0.3-0.2,0.4c-0.1,0.1-0.2,0.1-0.4,0.1s-0.4-0.1-0.8-0.3c-0.4-0.2-0.8-0.4-1.3-0.7s-1.1-0.5-1.8-0.7
			c-0.7-0.2-1.4-0.3-2.2-0.3c-0.6,0-1.2,0.1-1.7,0.2c-0.5,0.2-0.9,0.4-1.2,0.6c-0.3,0.3-0.5,0.6-0.7,1c-0.1,0.4-0.2,0.8-0.2,1.2
			c0,0.6,0.2,1.2,0.5,1.7c0.4,0.5,0.8,0.9,1.4,1.2c0.6,0.4,1.2,0.7,2,1c0.7,0.3,1.5,0.7,2.3,1c0.8,0.3,1.5,0.8,2.3,1.2
			c0.7,0.5,1.4,1,2,1.6s1,1.4,1.4,2.2C307.7,566.1,307.8,567.1,307.8,568.3z"/>
		<path class="st0" d="M318.1,576.1c0,0.2,0,0.3-0.1,0.4c-0.1,0.1-0.2,0.2-0.5,0.3c-0.2,0.1-0.5,0.1-0.9,0.2c-0.4,0-0.8,0.1-1.4,0.1
			c-0.6,0-1,0-1.4-0.1c-0.4,0-0.7-0.1-0.9-0.2c-0.2-0.1-0.4-0.2-0.5-0.3s-0.1-0.2-0.1-0.4v-27c0-0.2,0-0.3,0.1-0.4
			c0.1-0.1,0.3-0.2,0.5-0.3c0.2-0.1,0.5-0.1,0.9-0.2c0.4,0,0.8-0.1,1.4-0.1c0.6,0,1,0,1.4,0.1c0.4,0,0.7,0.1,0.9,0.2
			c0.2,0.1,0.4,0.2,0.5,0.3s0.1,0.2,0.1,0.4L318.1,576.1L318.1,576.1z"/>
		<path class="st0" d="M348,574.8c0,0.3-0.1,0.6-0.2,0.9c-0.1,0.3-0.3,0.5-0.5,0.7c-0.2,0.2-0.4,0.3-0.7,0.4s-0.5,0.1-0.8,0.1h-2.5
			c-0.5,0-1,0-1.3-0.2c-0.4-0.1-0.7-0.3-1-0.6s-0.6-0.6-0.9-1.1c-0.3-0.5-0.6-1.1-1-1.8l-7.1-13.4c-0.4-0.8-0.8-1.7-1.3-2.6
			c-0.4-0.9-0.8-1.8-1.1-2.7h0c0.1,1.1,0.1,2.1,0.1,3.2s0,2.1,0,3.3v15c0,0.2,0,0.3-0.1,0.4s-0.2,0.2-0.4,0.3s-0.5,0.1-0.8,0.2
			s-0.8,0.1-1.3,0.1c-0.5,0-0.9,0-1.3-0.1s-0.6-0.1-0.8-0.2c-0.2-0.1-0.3-0.2-0.4-0.3c-0.1-0.1-0.1-0.2-0.1-0.4v-25.7
			c0-0.7,0.2-1.2,0.6-1.6c0.4-0.3,0.9-0.5,1.5-0.5h3.1c0.6,0,1,0,1.4,0.1s0.7,0.2,1,0.5c0.3,0.2,0.6,0.5,0.9,0.9s0.5,0.9,0.8,1.5
			l5.6,10.5c0.3,0.6,0.6,1.3,1,1.9s0.6,1.2,0.9,1.8c0.3,0.6,0.6,1.2,0.9,1.8c0.3,0.6,0.5,1.2,0.8,1.8h0c0-1-0.1-2.1-0.1-3.2
			c0-1.1,0-2.2,0-3.2v-13.4c0-0.2,0-0.3,0.1-0.4s0.2-0.2,0.4-0.3c0.2-0.1,0.5-0.2,0.8-0.2s0.8-0.1,1.3-0.1c0.5,0,0.9,0,1.3,0.1
			s0.6,0.1,0.8,0.2c0.2,0.1,0.3,0.2,0.4,0.3c0.1,0.1,0.1,0.2,0.1,0.4L348,574.8L348,574.8z"/>
		<path class="st0" d="M374,572.5c0,0.4,0,0.7,0,0.9s-0.1,0.5-0.1,0.7s-0.1,0.3-0.2,0.5s-0.2,0.3-0.4,0.5s-0.5,0.4-0.9,0.7
			c-0.5,0.3-1,0.5-1.7,0.8s-1.4,0.5-2.3,0.6s-1.8,0.2-2.8,0.2c-2,0-3.7-0.3-5.3-0.9s-2.9-1.5-4-2.7s-2-2.7-2.5-4.5
			c-0.6-1.8-0.9-3.9-0.9-6.3c0-2.4,0.3-4.6,1-6.5c0.6-1.9,1.6-3.5,2.7-4.8c1.2-1.3,2.6-2.3,4.2-2.9s3.4-1,5.4-1
			c0.8,0,1.6,0.1,2.3,0.2s1.4,0.3,2,0.5c0.6,0.2,1.2,0.5,1.7,0.7s0.9,0.5,1,0.7s0.3,0.4,0.4,0.5s0.1,0.3,0.2,0.5
			c0,0.2,0.1,0.5,0.1,0.7c0,0.3,0,0.6,0,1c0,0.4,0,0.8,0,1.1s-0.1,0.6-0.2,0.8c-0.1,0.2-0.2,0.3-0.3,0.4c-0.1,0.1-0.2,0.1-0.4,0.1
			c-0.2,0-0.5-0.1-0.8-0.4s-0.8-0.5-1.3-0.9s-1.2-0.6-1.9-0.9c-0.8-0.3-1.6-0.4-2.7-0.4c-1.1,0-2.1,0.2-3,0.7
			c-0.9,0.5-1.6,1.1-2.3,2s-1.1,1.9-1.4,3.1c-0.3,1.2-0.5,2.6-0.5,4.1c0,1.7,0.2,3.1,0.5,4.4c0.4,1.2,0.8,2.2,1.5,3
			c0.6,0.8,1.4,1.4,2.3,1.8c0.9,0.4,1.9,0.6,3.1,0.6c1,0,1.9-0.1,2.7-0.4c0.8-0.2,1.4-0.5,1.9-0.8c0.5-0.3,1-0.6,1.3-0.8
			c0.4-0.2,0.6-0.3,0.8-0.3c0.1,0,0.3,0,0.4,0.1c0.1,0.1,0.2,0.2,0.2,0.3c0.1,0.2,0.1,0.4,0.1,0.7C374,571.6,374,572,374,572.5z"/>
		<path class="st0" d="M395.2,574.6c0,0.4,0,0.8-0.1,1.1c0,0.3-0.1,0.5-0.2,0.7c-0.1,0.2-0.2,0.3-0.3,0.4s-0.2,0.1-0.4,0.1h-14.4
			c-0.5,0-0.9-0.1-1.2-0.4s-0.5-0.8-0.5-1.4v-25c0-0.7,0.2-1.1,0.5-1.4s0.7-0.4,1.2-0.4h14.3c0.1,0,0.2,0,0.4,0.1s0.2,0.2,0.3,0.4
			s0.1,0.4,0.2,0.7c0,0.3,0.1,0.7,0.1,1.1c0,0.4,0,0.8-0.1,1s-0.1,0.5-0.2,0.7s-0.2,0.3-0.3,0.4s-0.2,0.1-0.4,0.1H384v7h8.6
			c0.1,0,0.2,0,0.4,0.1s0.2,0.2,0.3,0.4c0.1,0.2,0.1,0.4,0.2,0.7s0.1,0.6,0.1,1c0,0.4,0,0.8-0.1,1.1s-0.1,0.5-0.2,0.7
			c-0.1,0.2-0.2,0.3-0.3,0.4c-0.1,0.1-0.2,0.1-0.4,0.1H384v8.1h10.3c0.1,0,0.2,0,0.4,0.1c0.1,0.1,0.2,0.2,0.3,0.4
			c0.1,0.2,0.1,0.4,0.2,0.7C395.2,573.8,395.2,574.2,395.2,574.6z"/>
	</g>
</g>
<g id="Calque_3">
	<g>
		<path d="M572.8,167.6C524.6,119.3,464.1,87.8,398.3,76c0-13.9-3.6-25.5-7.8-34.3c-8.6-18.1-21.2-28.1-21.8-28.5l-8.1-6.3l1.3,10.2
			c3.4,27.7-13.3,48.4-20.6,55.9c-9.5-14.7-6.4-28.4-6.2-29.2l3.2-12.9l-10.1,8.6c-10,8.5-20.6,19.7-28.1,33.4
			c-73.6,8.6-141.7,41.4-194.9,94.6C42.8,230,8.4,313,8.4,401.3s34.4,171.3,96.8,233.8c62.4,62.4,145.5,96.8,233.8,96.8
			s171.3-34.4,233.8-96.8c62.5-62.5,96.8-145.5,96.8-233.8S635.2,230,572.8,167.6z M370.9,27.2c3.8,4.3,8.3,10.4,12,18.2
			c9.5,19.9,9.4,41.3-0.3,63.7c-5.6-6.4-13.6-12.3-26.2-21c-3.9-2.7-7.1-5.5-9.7-8.3C353.7,72.8,369.9,54,370.9,27.2z M326,53.1
			c0.6,11,5.3,28.1,25.5,42c27.9,19.2,30.9,22.6,37.5,52.3c-10.9,1.3-20.2,4.6-26,7.2c-1.8-33-30.6-54.1-32-55l-8.2-5.8l1.5,9.9
			c3.1,21.1-3.2,36.9-12.5,50.1c-3.8-5.7-9.8-16.5-12.3-30.4C295.1,98.3,304.1,74.7,326,53.1z M383,195.8c0.9,6.7,4.2,13.1,7.5,19.1
			c7.4,14,14.3,27.2-3.7,47.8h-92.5c-4.5-5.7-20.3-27.7-16-51.4c1.8-10,10.6-19.2,20.8-29.9c15.8-16.5,35-36.7,34.5-68.2
			c8.9,8.9,22.2,26.1,20.8,48l-0.5,8l6.9-4c0.3-0.1,24.1-13.8,48.7-8.5C398.6,164.2,380.8,179.2,383,195.8z M402.4,445.5l0.6,3.4
			c0.8,4.7,2.6,8.3,5.2,10.7c2.6,2.4,5.8,3.3,9.5,2.6c2.1-0.4,3.9-0.9,5.3-1.7c1.5-0.7,2.6-1.7,3.5-3l-1.7-9.4l-9.7,1.7l-0.8-4.5
			l15.2-2.7l2.7,15.4c-1.1,2.3-2.8,4.2-5.1,5.6s-5.2,2.5-8.6,3.1c-3.4,0.6-6.6,0.3-9.5-0.8c-2.9-1.1-5.4-3.1-7.4-5.8
			c-2-2.7-3.3-6-4-9.9l-0.6-3.7c-1.1-6.3-0.5-11.5,1.8-15.5c2.3-4,6.2-6.5,11.5-7.4c4.4-0.8,8.1-0.3,11.2,1.5s5.3,4.7,6.6,8.7
			l-5.5,1c-2-5.4-5.8-7.6-11.4-6.6c-3.7,0.7-6.3,2.5-7.8,5.4C401.9,436.6,401.6,440.6,402.4,445.5z M333.2,481.3l-5.6,1l-7.4-42
			l13.9-2.5c4.7-0.8,8.6-0.4,11.5,1.3c2.9,1.7,4.8,4.6,5.5,8.7c0.5,2.6,0.1,5-0.9,7.2s-2.8,4-5.1,5.4l13,16.1l0.1,0.3l-5.9,1
			L340,462.5l-9.9,1.7L333.2,481.3z M249,472.6l0.6,3.4c0.8,4.7,2.6,8.3,5.2,10.7c2.6,2.4,5.8,3.3,9.5,2.6c2.1-0.4,3.9-0.9,5.3-1.6
			c1.5-0.7,2.6-1.7,3.5-3l-1.7-9.4l-9.7,1.7l-0.8-4.5l15.2-2.7l2.7,15.4c-1.1,2.3-2.8,4.2-5.1,5.6s-5.2,2.5-8.6,3.1
			c-3.4,0.6-6.6,0.3-9.5-0.8s-5.4-3.1-7.4-5.8c-2-2.7-3.3-6-4.1-9.9l-0.6-3.7c-1.1-6.3-0.5-11.5,1.8-15.5s6.2-6.5,11.5-7.4
			c4.4-0.8,8.1-0.3,11.2,1.5c3.1,1.8,5.3,4.7,6.6,8.7l-5.5,1c-2-5.4-5.8-7.6-11.4-6.6c-3.7,0.6-6.3,2.5-7.8,5.4
			C248.5,463.7,248.2,467.6,249,472.6z M258.8,361.9l-0.1,0l10.6,60c0.1,0.4,0,0.7-0.1,1.1c-0.1,0.3-0.5,0.6-1,0.9
			c-0.5,0.3-1.2,0.6-2.1,0.9c-0.9,0.3-2,0.5-3.4,0.8c-1.4,0.2-2.5,0.4-3.5,0.4c-0.9,0-1.7,0-2.3-0.1c-0.6-0.1-1-0.3-1.3-0.5
			c-0.3-0.3-0.4-0.6-0.5-1l-11.6-65.8c-0.4-1.9-0.1-3.5,0.8-4.7c0.9-1.2,2.1-2,3.8-2.3l9.8-1.7c1.8-0.3,3.3-0.4,4.6-0.4
			c1.3,0.1,2.5,0.4,3.5,0.9s1.9,1.2,2.7,2.2s1.6,2.2,2.3,3.7l23.7,41.1l0.2,0l8.8-46.8c0.2-1.7,0.5-3.1,0.9-4.3
			c0.4-1.2,0.9-2.2,1.6-3c0.7-0.8,1.5-1.5,2.5-1.9c1-0.5,2.2-0.8,3.6-1.1l10.1-1.8c1-0.2,1.9-0.2,2.7-0.1c0.8,0.1,1.5,0.4,2,0.9
			c0.6,0.4,1,1,1.4,1.7s0.6,1.5,0.8,2.5l11.6,65.8c0.1,0.4,0,0.7-0.1,1.1c-0.1,0.3-0.5,0.7-1,0.9c-0.5,0.3-1.2,0.6-2.1,0.9
			c-0.9,0.3-2,0.5-3.5,0.8c-1.4,0.2-2.5,0.4-3.5,0.4c-0.9,0-1.7,0-2.2-0.1c-0.6-0.1-1-0.3-1.3-0.5s-0.5-0.6-0.5-1l-10.6-60l-0.1,0
			l-10.8,63.8c-0.1,0.5-0.2,1-0.5,1.4c-0.3,0.4-0.7,0.7-1.3,1c-0.5,0.3-1.3,0.5-2.2,0.8c-0.9,0.2-2,0.4-3.3,0.7
			c-1.3,0.2-2.4,0.4-3.3,0.4c-0.9,0.1-1.7,0-2.3-0.1c-0.6-0.1-1.1-0.3-1.5-0.5c-0.4-0.2-0.7-0.6-0.9-1L258.8,361.9z M381.9,311.8
			h-82.4c-1.6,0-3.1-0.5-4.3-1.3c-2.2-1.4-3.7-3.9-3.7-6.7c0-4.4,3.6-8,8-8h82.4c4.4,0,8,3.6,8,8
			C389.9,308.2,386.3,311.8,381.9,311.8z M293.7,444.9l4.8-0.9l23.5,39.2l-5.7,1l-6-10.3l-17.6,3.1l-2,11.7l-5.7,1L293.7,444.9z
			 M357.7,407.4c-0.3-0.3-0.5-0.6-0.5-1l-11.7-66.4c-0.3-1.8-0.1-3.2,0.7-4.3c0.8-1.1,1.9-1.7,3.4-2l17.4-3.1c1.8-0.3,3.4-0.5,5-0.7
			c1.6-0.1,3.5-0.2,5.8-0.1c2.3,0,4.7,0.5,7.1,1.2s4.7,1.9,6.6,3.5c1.9,1.5,3.5,3.4,4.8,5.7s2.2,4.9,2.7,7.9c0.7,4.1,0.7,7.9,0,11.4
			s-2.1,6.5-4.2,9.1c-2.1,2.6-4.8,4.8-8.2,6.6c-3.4,1.8-7.5,3.1-12.4,4l-6.2,1.1l4.1,23.5c0.1,0.4,0,0.7-0.2,1.1
			c-0.2,0.4-0.6,0.7-1.1,1c-0.5,0.3-1.3,0.6-2.2,0.9c-0.9,0.3-2.1,0.6-3.6,0.8c-1.4,0.2-2.7,0.4-3.6,0.5c-1,0-1.8,0-2.4,0
			C358.4,407.9,358,407.7,357.7,407.4z M368.6,431.7l4.8-0.9l23.5,39.2l-5.7,1l-5.9-10.3l-17.6,3.1l-2,11.7l-5.7,1L368.6,431.7z
			 M395.1,287.3H286.4c-4.4,0-8-3.6-8-8c0-4.4,3.6-8,8-8h108.7c4.4,0,8,3.6,8,8C403,283.7,399.5,287.3,395.1,287.3z M292.3,130.3
			c3.6,14.8,10.5,25.7,14,30.6c-4.3,5.2-8.9,10.1-13.4,14.7c-1.5,1.6-3,3.2-4.5,4.8C286.9,170.1,285.7,151.1,292.3,130.3z
			 M562.2,624.5c-59.6,59.6-138.9,92.4-223.2,92.4c-84.3,0-163.6-32.8-223.2-92.4S23.4,485.6,23.4,401.3
			c0-84.3,32.8-163.6,92.4-223.2c48.7-48.6,110.4-79.5,177.3-89.1c0.1-0.3,0.3-0.5,0.4-0.8c-2.5,7.7-3.8,16-3.6,24.9
			c-16.5,34.2-10.8,66.7-8.7,75.4c-5.6,6.8-9.9,13.7-11.3,21.4c-4.1,22.5,7,42.9,14,53.2c-7.9,1.2-14,8-14,16.3
			c0,8.7,6.7,15.8,15.2,16.4c-1.3,2.4-2.1,5.1-2.1,8c0,3.1,0.8,6,2.3,8.4L74.6,348.5c-22.5,131.9,45.6,207,45.6,207l480.9-80.7
			c32.4-118.9-28.8-212.1-28.8-212.1l-166,28.6c3.3-3,5.3-7.3,5.3-12.1c0-8.3-6.1-15.1-14.1-16.3c16.2-22.2,7.6-38.6,0.5-52
			c-3-5.7-5.8-11.1-6.5-16.3c-2-14.5,21.1-30.6,30.2-35.6l7.8-4.3l-8.2-3.4c-8-3.3-16-4.5-23.6-4.5c-3-13.7-5.4-22.6-9.4-29.7
			c4.5-9.3,7.3-18.1,8.8-26.3c0,0.1,0,0.1,0,0.2c62.2,11.5,119.5,41.4,165.2,87.1c59.6,59.6,92.4,138.9,92.4,223.2
			C654.6,485.6,621.8,564.9,562.2,624.5z M219.8,404.6l-7.8-44.4c-0.1-0.4,0-0.8,0.2-1.1c0.2-0.4,0.5-0.7,1.1-1s1.3-0.6,2.2-0.9
			c0.9-0.3,2.1-0.5,3.6-0.8c1.4-0.2,2.6-0.4,3.6-0.5c0.9-0.1,1.7,0,2.3,0c0.6,0.1,1,0.3,1.3,0.5c0.3,0.3,0.5,0.6,0.5,1l7.8,44.2
			c0.8,4.5,0.9,8.7,0.1,12.5s-2.1,7.2-4.3,10.1c-2.1,2.9-5,5.4-8.6,7.3c-3.6,2-7.8,3.4-12.8,4.2c-4.6,0.8-8.9,1-12.8,0.5
			c-3.9-0.5-7.3-1.7-10.3-3.6c-3-1.9-5.4-4.5-7.4-7.8s-3.4-7.3-4.2-12l-7.9-44.9c-0.1-0.4,0-0.7,0.2-1.1c0.2-0.4,0.5-0.7,1.1-1
			c0.6-0.3,1.3-0.6,2.2-0.9c0.9-0.3,2.1-0.5,3.6-0.8c1.4-0.3,2.6-0.4,3.6-0.5c1-0.1,1.8,0,2.4,0c0.6,0.1,1.1,0.3,1.4,0.5
			s0.5,0.6,0.6,1l7.7,43.6c0.5,2.9,1.3,5.4,2.4,7.4c1.1,2,2.4,3.6,4.1,4.8s3.4,1.9,5.4,2.3c2,0.4,4.2,0.4,6.5-0.1
			c2.4-0.4,4.4-1.1,6.1-2.2c1.7-1,3.1-2.4,4.2-4c1-1.6,1.7-3.5,2.1-5.7C220.3,409.6,220.3,407.2,219.8,404.6z M131.7,446.2
			c0.1,0.4,0,0.8-0.2,1.1c-0.2,0.4-0.6,0.7-1.1,1c-0.5,0.3-1.3,0.6-2.2,0.9c-0.9,0.3-2.1,0.6-3.6,0.8c-1.4,0.2-2.7,0.4-3.7,0.5
			c-1,0-1.8,0-2.4,0c-0.6-0.1-1.1-0.3-1.3-0.5c-0.3-0.3-0.5-0.6-0.5-1L105,382.5c-0.3-1.8-0.1-3.2,0.7-4.3c0.8-1.1,1.9-1.7,3.4-2
			l17.4-3.1c1.8-0.3,3.4-0.5,5-0.7c1.6-0.1,3.6-0.2,5.8-0.1c2.3,0,4.7,0.5,7.1,1.2c2.5,0.8,4.7,1.9,6.6,3.5c1.9,1.5,3.5,3.4,4.8,5.7
			c1.3,2.3,2.2,4.9,2.7,7.9c0.7,4.1,0.7,7.9,0,11.4s-2.1,6.4-4.2,9.1c-2.1,2.6-4.8,4.8-8.2,6.6c-3.4,1.8-7.5,3.1-12.4,4l-6.2,1.1
			L131.7,446.2z M486.7,357.5l-7.8-44.4c-0.1-0.4,0-0.7,0.2-1.1c0.2-0.3,0.5-0.7,1.1-1c0.5-0.3,1.3-0.6,2.2-0.9
			c1-0.3,2.1-0.6,3.6-0.8c1.5-0.3,2.6-0.4,3.6-0.5s1.7,0,2.3,0.1c0.6,0.1,1,0.3,1.3,0.5s0.5,0.6,0.5,1l7.8,44.3
			c0.8,4.5,0.9,8.7,0.1,12.5c-0.7,3.8-2.1,7.2-4.3,10.1s-5,5.4-8.6,7.3c-3.6,2-7.8,3.4-12.8,4.3c-4.6,0.8-8.9,1-12.8,0.5
			c-3.9-0.5-7.3-1.7-10.3-3.6c-3-1.9-5.4-4.5-7.4-7.8c-2-3.3-3.4-7.3-4.2-12l-7.9-44.9c-0.1-0.4,0-0.7,0.2-1.1
			c0.2-0.3,0.5-0.7,1.1-1c0.6-0.3,1.3-0.6,2.2-0.9c0.9-0.3,2.1-0.5,3.6-0.8c1.5-0.2,2.6-0.4,3.6-0.5c1,0,1.8,0,2.4,0.1
			c0.6,0.1,1,0.3,1.4,0.5s0.5,0.6,0.5,1l7.7,43.6c0.5,2.9,1.3,5.4,2.4,7.4c1.1,2,2.5,3.6,4,4.8c1.6,1.2,3.4,1.9,5.4,2.3
			c2,0.4,4.2,0.4,6.5,0c2.4-0.4,4.4-1.1,6.1-2.2c1.7-1,3.1-2.4,4.2-4c1-1.6,1.7-3.5,2.1-5.7C487.2,362.5,487.1,360.1,486.7,357.5z
			 M443.8,437.1l18.2-3.2l0.8,4.5l-18.2,3.2l2.6,14.9l21.1-3.7l0.8,4.5l-26.7,4.7l-7.4-42l26.4-4.7l0.8,4.5l-20.9,3.7L443.8,437.1z
			 M537,374.7c0.1,0.4,0,0.7-0.2,1.1c-0.2,0.4-0.6,0.7-1.1,1c-0.5,0.3-1.3,0.6-2.2,0.9c-0.9,0.3-2.1,0.5-3.6,0.8
			c-1.4,0.2-2.7,0.4-3.7,0.5c-1,0-1.8,0-2.4,0c-0.6-0.1-1-0.3-1.3-0.5s-0.5-0.6-0.5-1L510.3,311c-0.3-1.8-0.1-3.2,0.7-4.3
			c0.8-1.1,1.9-1.7,3.4-2l17.4-3.1c1.8-0.3,3.4-0.5,5-0.7c1.6-0.1,3.5-0.2,5.8-0.1c2.3,0,4.7,0.5,7.1,1.2c2.5,0.8,4.7,1.9,6.6,3.5
			c1.9,1.5,3.5,3.4,4.8,5.7s2.2,4.9,2.7,7.9c0.7,4.1,0.7,7.9,0,11.4s-2.1,6.5-4.2,9.1c-2.1,2.6-4.8,4.8-8.2,6.6s-7.5,3.1-12.4,4
			l-6.2,1.1L537,374.7z"/>
		<path d="M548.1,192.3c-42.4-42.4-95.4-70.3-153.1-81.3c-0.6,2.5-1.2,5.1-2.1,7.8c56.3,10.6,108.1,37.8,149.5,79.2
			c54.3,54.3,84.2,126.6,84.2,203.4s-29.9,149.1-84.2,203.4C488.1,659.1,415.8,689,339,689s-149.1-29.9-203.4-84.2
			c-54.3-54.3-84.3-126.6-84.3-203.4s29.9-149.1,84.2-203.4c41.2-41.2,92.7-68.3,148.6-79.1c0.3-2.9,0.7-5.7,1.2-8.4
			c-58.6,10.7-112.5,38.8-155.5,81.8c-55.8,55.8-86.6,130.1-86.6,209.1s30.8,153.2,86.6,209.1C185.8,666.2,260,697,339,697
			s153.2-30.8,209.1-86.6c55.8-55.8,86.6-130.1,86.6-209.1S603.9,248.1,548.1,192.3z"/>
		<polygon points="473,199.3 465.9,180.4 459.7,199.3 438.6,199.3 454,212.5 449.2,233.2 467.2,218.2 482.6,230.2 476.9,212.5 
			492.8,199.3 		"/>
		<polygon points="201.2,245.1 194.2,226.2 188,245.1 166.9,245.1 182.3,258.3 177.5,279 195.5,264 210.9,276 205.2,258.3 
			221.1,245.1 		"/>
		<path d="M244.6,610.2c0.2,0.2,0.6,0.3,1,0.3c0.4-0.1,1-0.3,1.7-0.6l9.5-5v37h-11c-0.3,0-0.5,0.1-0.7,0.2c-0.2,0.2-0.4,0.4-0.6,0.8
			c-0.2,0.3-0.3,0.8-0.4,1.4c-0.1,0.6-0.1,1.3-0.1,2.1c0,0.8,0.1,1.5,0.1,2.1c0.1,0.6,0.2,1,0.4,1.4c0.2,0.3,0.4,0.6,0.6,0.7
			c0.2,0.2,0.4,0.2,0.7,0.2h32.6c0.3,0,0.5-0.1,0.7-0.2c0.2-0.2,0.4-0.4,0.6-0.7c0.2-0.3,0.3-0.8,0.4-1.4c0.1-0.6,0.1-1.3,0.1-2.1
			c0-0.8,0-1.6-0.1-2.1c-0.1-0.6-0.2-1-0.4-1.4c-0.2-0.3-0.4-0.6-0.6-0.8c-0.2-0.2-0.5-0.2-0.8-0.2h-9.6v-46.9
			c0-0.3-0.1-0.5-0.2-0.7c-0.1-0.2-0.4-0.3-0.7-0.4c-0.4-0.1-0.9-0.2-1.6-0.2c-0.7,0-1.6-0.1-2.8-0.1c-0.9,0-1.7,0-2.3,0
			c-0.6,0-1.1,0-1.4,0.1c-0.4,0-0.7,0.1-0.9,0.2s-0.4,0.2-0.6,0.3l-12.7,7.9c-0.4,0.2-0.7,0.5-0.9,0.7c-0.2,0.2-0.4,0.5-0.5,0.8
			c-0.1,0.3-0.2,0.7-0.2,1.2s-0.1,1-0.1,1.7c0,1.1,0.1,2,0.1,2.6C244.2,609.5,244.4,609.9,244.6,610.2z"/>
		<path d="M288.1,629.3c1.5,1.7,3.5,3.1,6,4c2.5,0.9,5.5,1.4,9,1.4c2.9,0,5.4-0.4,7.6-1.1c2.2-0.7,4.1-1.6,5.7-2.6
			c-0.1,2.5-0.4,4.9-1,7.2c-0.6,2.3-1.5,4.3-2.7,6s-2.8,3.1-4.8,4.2c-2,1-4.4,1.5-7.3,1.5c-1.7,0-3.2-0.1-4.5-0.3
			c-1.4-0.2-2.6-0.5-3.7-0.8c-1.1-0.3-2-0.6-2.7-0.8s-1.3-0.4-1.7-0.4c-0.3,0-0.6,0.1-0.8,0.2c-0.2,0.1-0.4,0.4-0.6,0.7
			c-0.1,0.4-0.2,0.9-0.3,1.6c-0.1,0.7-0.1,1.6-0.1,2.7c0,1.2,0.1,2.2,0.2,2.9c0.2,0.7,0.5,1.2,0.8,1.6c0.4,0.4,1,0.7,1.8,1
			c0.8,0.3,1.9,0.7,3,1c1.2,0.3,2.5,0.6,4,0.8c1.5,0.2,2.9,0.3,4.4,0.3c4.2,0,7.8-0.5,10.8-1.6c3.1-1.1,5.7-2.6,7.8-4.4
			s3.9-4,5.2-6.5c1.3-2.5,2.4-5.1,3.2-7.9c0.8-2.8,1.3-5.6,1.6-8.5c0.3-2.9,0.4-5.7,0.4-8.4c0-2.9-0.1-5.8-0.4-8.5s-0.7-5.2-1.3-7.5
			s-1.5-4.4-2.6-6.3c-1.1-1.9-2.5-3.5-4.1-4.8c-1.7-1.3-3.6-2.3-6-3.1c-2.3-0.7-5-1.1-8.1-1.1c-3.8,0-7.2,0.6-10.1,1.7
			c-2.9,1.1-5.3,2.7-7.3,4.7c-2,2-3.4,4.4-4.4,7.2c-1,2.8-1.5,5.8-1.5,9.2c0,3.1,0.4,6,1,8.5C285.5,625.5,286.6,627.6,288.1,629.3z
			 M297.5,608.9c0.4-1.4,1-2.6,1.7-3.6c0.8-1,1.7-1.8,2.9-2.4c1.2-0.6,2.5-0.8,4.1-0.8c1.6,0,3.1,0.3,4.3,0.9
			c1.2,0.6,2.3,1.7,3.1,3.1c0.8,1.5,1.4,3.4,1.8,5.9s0.6,5.5,0.6,9.2c-1.4,1-2.9,1.8-4.7,2.4c-1.8,0.6-3.6,0.9-5.6,0.9
			c-1.6,0-3-0.2-4.1-0.7s-2-1.1-2.7-2c-0.7-0.9-1.2-2-1.5-3.4c-0.3-1.4-0.5-3-0.5-4.8C297,611.9,297.1,610.3,297.5,608.9z"/>
		<path d="M343,641.1c1.5,2.5,3.5,4.4,6,5.7c2.5,1.3,5.7,2,9.6,2c3.8,0,7-0.7,9.6-2s4.8-3.3,6.4-5.9s2.8-5.6,3.5-9.3
			c0.7-3.6,1.1-7.7,1.1-12.2c0-4.5-0.3-8.6-0.9-12.2c-0.6-3.6-1.6-6.6-3.1-9.1c-1.5-2.5-3.5-4.4-6-5.7c-2.5-1.3-5.7-2-9.6-2
			c-3.8,0-7,0.7-9.6,2s-4.8,3.3-6.4,5.9s-2.8,5.6-3.6,9.3c-0.7,3.6-1.1,7.7-1.1,12.2c0,4.5,0.3,8.6,0.9,12.2
			C340.5,635.6,341.5,638.6,343,641.1z M350.9,610.7c0.3-2.5,0.7-4.5,1.4-6.2c0.6-1.7,1.5-2.9,2.6-3.7c1.1-0.8,2.5-1.2,4.2-1.2
			c1,0,1.9,0.1,2.7,0.4c0.8,0.3,1.5,0.7,2.2,1.3c0.6,0.6,1.2,1.5,1.6,2.5c0.5,1,0.8,2.3,1.1,3.8c0.3,1.5,0.5,3.3,0.7,5.3
			c0.1,2,0.2,4.4,0.2,7.1c0,2.2,0,4.2-0.1,6c-0.1,1.8-0.3,3.5-0.6,4.9c-0.3,1.5-0.6,2.7-1.1,3.8c-0.4,1.1-1,2-1.6,2.7
			c-0.7,0.7-1.4,1.3-2.3,1.6c-0.9,0.4-1.9,0.5-3,0.5c-1.5,0-2.8-0.3-3.9-0.9c-1.1-0.6-2-1.7-2.6-3.3c-0.7-1.5-1.2-3.6-1.5-6.3
			c-0.3-2.6-0.5-5.9-0.5-9.9C350.5,616,350.7,613.1,350.9,610.7z"/>
		<path d="M388.6,653.9c0.1,0.4,0.2,0.8,0.3,1.1c0.1,0.3,0.4,0.6,0.7,0.9c0.3,0.3,0.9,0.6,1.9,1c1,0.4,2.2,0.8,3.7,1.2
			c1.5,0.4,3.2,0.7,5.1,1c1.9,0.3,3.9,0.4,6,0.4c4,0,7.6-0.5,10.9-1.6c3.3-1,6.1-2.5,8.4-4.5c2.3-2,4.1-4.4,5.4-7.3
			c1.3-2.9,1.9-6.2,1.9-9.8c0-3.2-0.5-6.1-1.5-8.6c-1-2.5-2.5-4.5-4.4-6.2s-4.3-2.9-7.2-3.8c-2.9-0.9-6.1-1.3-9.8-1.3
			c-1.3,0-2.6,0-3.8,0c-1.2,0-2.4,0.1-3.6,0.3v-14.5h24.1c0.7,0,1.2-0.5,1.6-1.4c0.4-0.9,0.5-2.5,0.5-4.6c0-1,0-2-0.1-2.7
			c-0.1-0.8-0.2-1.3-0.4-1.8c-0.2-0.5-0.4-0.8-0.7-1c-0.3-0.2-0.6-0.3-0.9-0.3h-32.1c-1.2,0-2,0.3-2.6,0.9s-0.8,1.6-0.8,3v29.5
			c0,1.4,0.2,2.3,0.6,2.8c0.4,0.5,1.2,0.8,2.2,0.8c1.5,0,3-0.1,4.7-0.3c1.7-0.2,3.5-0.3,5.5-0.3c2.5,0,4.7,0.2,6.5,0.7
			c1.8,0.5,3.2,1.1,4.4,2c1.1,0.9,1.9,2,2.5,3.3s0.8,2.8,0.8,4.5c0,2-0.3,3.6-1,5c-0.6,1.4-1.5,2.6-2.7,3.5c-1.1,0.9-2.6,1.6-4.2,2
			c-1.7,0.4-3.5,0.6-5.5,0.6c-2.3,0-4.4-0.2-6-0.6c-1.7-0.4-3.1-0.8-4.3-1.3c-1.2-0.5-2.1-0.9-2.8-1.3c-0.7-0.4-1.2-0.6-1.6-0.6
			c-0.3,0-0.5,0.1-0.7,0.3c-0.2,0.2-0.4,0.5-0.5,0.9c-0.2,0.4-0.3,1-0.3,1.7s-0.1,1.5-0.1,2.5c0,0.9,0,1.7,0.1,2.4
			C388.5,652.9,388.5,653.5,388.6,653.9z"/>
		<polygon points="372.2,438.1 368.5,459 382.8,456.5 		"/>
		<path d="M372.7,367.5c2.4-0.4,4.3-1.1,5.8-2s2.7-2.1,3.5-3.4c0.8-1.3,1.4-2.9,1.6-4.6c0.2-1.7,0.2-3.5-0.1-5.4
			c-0.5-2.6-1.3-4.6-2.5-6.1c-1.2-1.5-2.5-2.5-4-3.1s-3-0.8-4.5-0.8c-1.5,0-3,0.2-4.6,0.5l-6.4,1.1l4.4,25L372.7,367.5z"/>
		<path d="M141.6,404.5c0.8-1.3,1.4-2.9,1.6-4.6c0.2-1.7,0.2-3.5-0.1-5.4c-0.5-2.6-1.3-4.6-2.5-6.1c-1.2-1.5-2.6-2.5-4-3.1
			s-3-0.8-4.5-0.8c-1.5,0-3,0.2-4.6,0.5l-6.4,1.1l4.4,25l6.7-1.2c2.4-0.4,4.3-1.1,5.8-2C139.6,406.9,140.8,405.8,141.6,404.5z"/>
		<polygon points="297.3,451.3 293.6,472.2 307.9,469.7 		"/>
		<path d="M344.1,455c1.4-1.7,1.9-3.8,1.4-6.1c-0.5-2.6-1.6-4.5-3.4-5.6s-4.1-1.4-7.1-0.9l-8.5,1.5l2.8,16l8.5-1.5
			C340.6,457.8,342.7,456.7,344.1,455z"/>
		<path d="M546.8,333c0.8-1.3,1.4-2.9,1.6-4.6c0.2-1.7,0.2-3.5-0.1-5.4c-0.5-2.6-1.3-4.6-2.5-6.1s-2.5-2.5-4-3.1
			c-1.5-0.6-3-0.8-4.5-0.8c-1.5,0-3,0.2-4.6,0.5l-6.4,1.1l4.4,25l6.7-1.2c2.4-0.4,4.3-1.1,5.8-2C544.9,335.5,546,334.3,546.8,333z"
			/>
	</g>
</g>
</svg>
