<?xml version="1.0" encoding="utf-8"?>
<!-- Generator: Adobe Illustrator 25.0.1, SVG Export Plug-In . SVG Version: 6.00 Build 0)  -->
<svg version="1.1" xmlns="http://www.w3.org/2000/svg" xmlns:xlink="http://www.w3.org/1999/xlink" x="0px" y="0px"
	 viewBox="0 0 482.2 93.1" style="enable-background:new 0 0 482.2 93.1;" xml:space="preserve">
<style type="text/css">
	.st0{fill:#FFFFFF;}
</style>
<g id="Calque_1">
</g>
<g id="Calque_2">
	<polygon class="st0" points="19.7,21.1 0.3,21.1 0.3,0.2 63.2,0.2 63.2,21.1 43.5,21.1 43.1,92.7 20.5,92.7 	"/>
	<path class="st0" d="M153.4,0.2l-5.1,17.4c0,0-13.5-7.5-33.6-0.8c-2.4-6.2-4.7-16.6-4.7-16.6H83.4l34.4,92.6h26.5l34.4-92.6H153.4z
		 M131.9,66.6l-9.7-29.5h19.4L131.9,66.6z"/>
	<polygon class="st0" points="215.9,21.1 196.5,21.1 196.5,0.2 259.5,0.2 259.5,21.1 239.7,21.1 239.3,92.7 216.7,92.7 	"/>
	<path class="st0" d="M322,0.2c-26.9,0-48.7,20.7-48.7,46.3c0,25.6,21.8,46.3,48.7,46.3c26.9,0,48.7-20.7,48.7-46.3
		C370.6,20.9,348.8,0.2,322,0.2z M322,70.5c-14,0-25.3-10.8-25.3-24.1c0-13.3,11.3-24.1,25.3-24.1c14,0,25.3,10.8,25.3,24.1
		C347.3,59.8,335.9,70.5,322,70.5z"/>
	<path class="st0" d="M433.1,0.2c-26.9,0-48.7,20.7-48.7,46.3c0,25.6,21.8,46.3,48.7,46.3c26.9,0,48.7-20.7,48.7-46.3
		C481.8,20.9,460,0.2,433.1,0.2z M433.1,70.5c-14,0-25.3-10.8-25.3-24.1c0-13.3,11.3-24.1,25.3-24.1c14,0,25.3,10.8,25.3,24.1
		C458.4,59.8,447.1,70.5,433.1,70.5z"/>
</g>
</svg>
